# xmcd CD database file
#
# Track frame offsets:
#	150
#	33975
#	56974
#	67948
#	84367
#	104201
#	114068
#	142118
#	159562
#	181587
#	196299
#	209039
#
# Disc length: 2997 seconds
#
# Revision: 3
# Processed by: cddbd v1.5.2PL0 Copyright (c) Steve Scherf et al.
# Submitted via: CDex 1.51
#
DISCID=a90bb30c
DTITLE=Matthew Robinson and The Texas Blues Band - Matthew Robinson and The Texas Blues Band
DYEAR=2001
DGENRE=Blues
TTITLE0=I'm Mr, Jody
TTITLE1=EEE. TEE
TTITLE2=Don't Start Me To Talking
TTITLE3=Bumblebee
TTITLE4=It Takes A Long Time To Break In A New Broom
TTITLE5=I Asked For Water
TTITLE6=Too Many Dirty Dishes
TTITLE7=I Got What It Takes
TTITLE8=Wet Paper Sack
TTITLE9=Too Many Drivers
TTITLE10=Meet Me With Your Black Drawers On
TTITLE11=Party All Night
EXTD=YEAR: 2001
EXTT0=
EXTT1=
EXTT2=
EXTT3=
EXTT4=
EXTT5=
EXTT6=
EXTT7=
EXTT8=
EXTT9=
EXTT10=
EXTT11=
PLAYORDER=
